# xmcd
# 
# Track frame offsets:
#   150
#   16025
#   30172
#   47154
#   64850
#   81424
#   96327
#   113765
#   132301
#   156006
#   178412
#   193213
# 
# Disc length: 2778 seconds
# 
# Revision: 2
# Processed by: cddbd v1.5.2PL0 Copyright (c) Steve Scherf et al.
# Submitted via: Synapstar 1.0 
# 
DISCID=9e0ad80c
DTITLE=Various Artist - 60451
DYEAR=1900
DGENRE=Country
TTITLE0=Josh Gracin - Cover Girl
TTITLE1=Randy Houser - A Man Like Me
TTITLE2=Sunny Sweeney - From A Table Away
TTITLE3=Zac Brown - As She's Walking Away
TTITLE4=Dierks Bentley - Draw Me A Map
TTITLE5=Joanna Smith - Gettin' Married
TTITLE6=Craig Campbell - Family Man
TTITLE7=Jamie Johnson - Playing The Part
TTITLE8=Sarah Evans - A Little Bit Stronger
TTITLE9=James Otto - Soldiers and Jesus
TTITLE10=Josh Kelley - Georgia Clay
TTITLE11=Laura Bell Bundy - Drop On By
EXTD=MediaType: Karaoke CD+G Producer: Chartbuster
EXTT0=
EXTT1=
EXTT2=
EXTT3=
EXTT4=
EXTT5=
EXTT6=
EXTT7=
EXTT8=
EXTT9=
EXTT10=
EXTT11=
PLAYORDER=
